<svg xmlns="http://www.w3.org/2000/svg" width="1021" height="1027" viewBox="0 0 1021 1027">
<g>
<path d="M 453.60 1011.90 C448.05,1015.61 442.64,1018.96 441.60,1019.35 C440.55,1019.74 445.50,1014.07 452.60,1006.76 C489.06,969.21 513.13,929.03 523.57,888.31 C525.45,880.96 527.28,871.79 527.64,867.92 L 528.30 860.89 L 525.90 861.43 C524.58,861.73 516.75,863.14 508.50,864.56 C500.25,865.99 493.18,867.46 492.80,867.83 C492.41,868.20 485.73,885.83 477.95,907.00 C470.17,928.18 463.11,946.28 462.25,947.24 C459.97,949.81 443.91,960.02 433.00,965.84 C399.64,983.63 350.70,997.93 314.38,1000.50 L 305.50 1001.13 L 322.50 995.23 C398.68,968.80 454.65,927.05 485.35,873.75 L 488.08 869.00 L 485.73 869.00 C484.43,869.00 471.94,871.01 457.98,873.46 C444.02,875.92 432.41,877.74 432.19,877.52 C430.41,875.75 502.15,751.10 509.52,743.15 C510.50,742.09 510.92,742.07 511.54,743.06 C512.08,743.93 511.89,744.07 510.90,743.51 C509.85,742.91 509.77,743.00 510.61,743.91 C512.22,745.67 516.34,744.30 519.58,740.92 C521.12,739.31 523.17,738.00 524.15,738.00 C525.13,738.00 527.41,736.71 529.22,735.14 C532.89,731.94 538.19,729.00 540.28,729.00 C541.04,729.00 543.62,727.20 546.00,725.00 C548.38,722.80 551.17,721.00 552.20,721.00 C553.22,721.00 554.32,720.34 554.62,719.54 C555.18,718.09 558.74,716.40 560.32,716.83 C560.78,716.95 560.90,716.64 560.59,716.14 C560.28,715.64 560.78,714.61 561.70,713.86 C563.04,712.78 563.22,712.77 562.59,713.82 C561.93,714.91 562.15,714.92 563.83,713.87 C564.95,713.17 565.67,712.27 565.42,711.87 C565.17,711.47 565.83,710.87 566.88,710.54 C567.93,710.21 569.03,709.00 569.33,707.86 C569.83,705.95 569.55,705.84 565.68,706.38 C543.85,709.43 499.12,710.32 477.50,708.12 C458.79,706.22 434.92,702.32 418.50,698.49 C403.44,694.98 383.48,689.19 384.15,688.52 C384.34,688.33 388.33,688.66 393.00,689.26 C407.34,691.09 465.97,690.71 483.50,688.67 C522.17,684.15 553.32,676.81 582.50,665.33 C595.98,660.03 617.85,649.32 626.80,643.64 L 631.09 640.92 L 623.30 635.33 C613.03,627.97 601.91,618.60 594.53,611.08 C591.25,607.74 587.99,605.00 587.28,605.00 C586.58,605.00 556.75,616.70 521.00,631.00 C481.15,646.94 454.69,657.00 452.63,657.00 C448.67,657.00 429.72,653.23 414.96,649.50 C380.74,640.86 338.72,623.75 304.28,604.45 C290.83,596.91 256.73,574.99 255.59,573.15 C255.28,572.64 261.66,575.04 269.76,578.48 C314.26,597.35 361.77,610.15 411.50,616.66 C431.38,619.27 487.76,619.29 506.00,616.70 C521.23,614.54 535.52,611.69 547.50,608.42 C558.03,605.55 580.00,597.87 579.99,597.06 C579.98,596.75 576.14,591.78 571.45,586.00 C566.76,580.22 559.25,570.21 554.76,563.75 C547.37,553.12 546.30,552.00 543.55,552.00 C541.88,552.00 507.29,554.04 466.68,556.54 L 392.85 561.08 L 384.17 556.37 C327.74,525.73 270.18,473.83 232.38,419.50 L 227.51 412.50 L 239.51 423.19 C300.94,477.94 367.84,515.78 433.00,532.62 C447.28,536.32 457.09,537.70 461.39,536.62 C463.53,536.08 464.00,535.38 464.00,532.71 C464.00,530.92 464.87,526.32 465.94,522.47 C467.00,518.63 468.15,511.89 468.49,507.49 C469.31,497.05 471.01,485.93 472.12,483.81 C472.86,482.40 471.79,481.51 465.75,478.55 C458.57,475.03 441.91,470.05 381.50,453.37 C346.07,443.59 350.33,445.95 333.06,426.50 C289.96,377.95 255.79,314.50 237.04,248.17 C233.88,236.99 233.44,232.81 236.09,239.22 C240.35,249.50 257.54,279.27 270.04,298.00 C294.96,335.36 328.68,373.94 356.30,396.73 C368.86,407.09 370.00,407.39 375.73,401.81 C378.16,399.44 380.77,396.04 381.52,394.25 C382.28,392.46 383.40,391.00 384.01,391.00 C384.62,391.00 384.83,390.54 384.48,389.98 C384.14,389.41 384.42,389.07 385.11,389.23 C385.80,389.38 386.98,388.26 387.74,386.75 C388.50,385.23 391.56,381.35 394.56,378.11 C397.55,374.88 400.00,371.69 400.00,371.02 C400.00,370.35 401.46,368.42 403.25,366.72 C405.04,365.03 405.83,363.98 405.00,364.39 C404.15,364.82 404.27,364.52 405.27,363.70 C409.56,360.19 406.72,357.68 362.19,325.68 L 341.89 311.09 L 336.83 300.80 C330.23,287.36 322.13,266.54 317.62,251.44 C297.92,185.39 296.16,106.93 312.66,30.25 C314.11,23.51 315.57,18.00 315.90,18.00 C316.23,18.00 316.35,24.86 316.17,33.25 C314.80,95.60 327.14,167.02 348.70,221.50 C372.84,282.50 410.22,331.02 458.40,363.88 L 467.31 369.95 L 477.54 400.73 C488.13,432.56 496.16,453.34 508.17,480.00 C523.54,514.11 546.09,552.83 551.50,554.39 C552.67,554.73 554.55,554.20 556.03,553.11 C557.43,552.09 563.42,548.92 569.36,546.07 C581.21,540.37 586.72,536.12 584.77,534.17 C583.88,533.28 583.92,533.00 584.97,533.00 C585.89,533.00 585.54,532.08 583.94,530.25 C581.59,527.57 583.48,529.20 597.19,541.71 C612.52,555.71 635.55,570.79 650.74,576.78 C679.37,588.08 706.55,589.42 733.00,580.83 C740.47,578.40 753.03,572.41 758.65,568.59 C760.76,567.16 762.65,566.44 762.84,567.01 C763.02,567.57 762.47,573.09 761.61,579.27 C760.08,590.20 758.56,606.26 757.52,622.50 C754.53,669.03 747.28,703.53 734.49,732.09 C710.60,785.43 664.94,824.07 601.01,845.03 L 589.50 848.81 L 588.81 858.65 C586.65,889.37 578.46,917.82 563.43,946.80 C556.98,959.25 547.67,974.29 543.93,978.31 C542.08,980.29 542.12,979.97 544.36,974.91 C559.66,940.32 569.06,892.88 566.56,862.90 L 565.85 854.31 L 550.39 857.02 C541.89,858.51 534.64,860.03 534.28,860.39 C533.91,860.75 534.39,875.26 535.34,892.62 L 537.07 924.19 L 533.58 930.43 C519.03,956.43 485.49,990.61 453.60,1011.90 ZM 659.74 544.82 C660.62,545.37 659.67,546.89 656.49,550.01 L 652.00 554.42 L 652.00 546.96 L 652.00 539.50 L 610.51 513.50 L 569.03 487.50 L 564.03 476.27 C551.19,447.46 543.03,415.42 540.04,382.00 C539.03,370.80 538.78,350.50 539.69,354.50 C550.09,400.14 565.40,437.77 586.15,468.71 C595.87,483.22 607.47,496.75 611.69,498.51 C615.05,499.92 615.28,499.87 619.08,496.82 C621.24,495.08 623.00,493.35 623.00,492.97 C623.00,492.59 624.61,490.76 626.59,488.89 C628.56,487.03 630.70,484.89 631.34,484.15 C631.98,483.41 633.77,481.56 635.32,480.04 C640.37,475.09 639.39,473.33 613.51,440.90 L 590.22 411.73 L 588.86 402.12 C586.61,386.23 587.14,344.75 589.81,327.50 C592.23,311.87 597.33,290.31 601.99,276.10 C605.39,265.72 607.42,261.48 606.59,266.50 C604.06,281.83 603.51,291.27 603.56,318.50 C603.60,344.29 603.92,350.49 605.81,362.66 C608.88,382.36 612.46,396.07 615.09,398.24 C616.26,399.20 617.50,399.81 617.85,399.59 C618.21,399.38 620.15,398.94 622.16,398.62 C624.17,398.30 629.29,396.91 633.53,395.52 C637.78,394.13 641.90,393.00 642.68,393.00 C644.86,393.00 649.69,390.25 650.30,388.65 C650.60,387.87 647.33,376.62 643.03,363.66 L 635.22 340.08 L 636.63 331.79 C643.83,289.50 667.22,244.80 702.72,205.50 C711.86,195.38 727.93,180.00 729.37,180.00 C729.71,180.00 728.03,182.59 725.65,185.75 C708.98,207.86 693.82,234.78 683.32,260.92 C662.39,313.01 659.41,362.41 674.54,406.69 L 678.08 417.05 L 674.59 427.85 C666.63,452.47 660.63,476.38 657.10,497.50 C653.31,520.23 651.83,541.00 654.00,541.00 C654.55,541.00 655.00,541.67 655.00,542.50 C655.00,543.33 655.79,544.01 656.75,544.02 C657.71,544.02 659.06,544.38 659.74,544.82 ZM 523.00 754.52 C523.00,755.11 540.57,750.08 553.28,745.85 C598.70,730.76 641.57,707.88 674.95,680.91 C687.02,671.16 691.84,666.23 689.92,665.61 C689.14,665.37 683.72,663.79 677.87,662.11 C667.06,659.01 651.89,652.82 644.32,648.42 L 640.13 645.99 L 588.32 693.64 C536.76,741.06 523.00,753.88 523.00,754.52 Z" fill="rgb(17,43,148)" data-index="0" style="opacity: 1;"></path>
<path d="M 315.98 18.15 C316.05,18.05 316.10,18.00 316.15,18.00 C316.62,18.00 317.04,21.26 317.08,25.25 C317.12,29.24 317.39,31.93 317.66,31.24 C317.94,30.55 318.58,30.24 319.09,30.55 C319.95,31.09 320.43,29.00 320.08,26.27 C319.99,25.54 320.56,25.28 321.45,25.62 C322.30,25.94 322.70,26.68 322.34,27.26 C321.99,27.83 322.44,28.85 323.36,29.52 C324.94,30.67 334.62,50.09 369.73,122.50 C433.44,253.88 447.43,283.23 451.36,293.73 C474.29,355.02 501.27,411.64 529.00,456.66 C554.49,498.03 581.38,529.90 609.15,551.69 C604.87,548.39 600.81,545.02 597.19,541.71 C583.48,529.20 581.59,527.57 583.94,530.25 C585.54,532.08 585.89,533.00 584.97,533.00 C583.92,533.00 583.88,533.28 584.77,534.17 C586.72,536.12 581.21,540.37 569.36,546.07 C563.42,548.92 557.43,552.09 556.03,553.11 C554.55,554.20 552.67,554.73 551.50,554.39 C546.09,552.83 523.54,514.11 508.17,480.00 C496.16,453.34 488.13,432.56 477.54,400.73 L 467.31 369.95 L 458.40 363.88 C410.22,331.02 372.84,282.50 348.70,221.50 C327.14,167.02 314.80,95.60 316.17,33.25 C316.33,25.60 316.25,19.22 315.98,18.15 ZM 659.74 544.82 C659.06,544.38 657.71,544.02 656.75,544.02 C655.79,544.01 655.00,543.33 655.00,542.50 C655.00,541.67 654.55,541.00 654.00,541.00 C651.83,541.00 653.31,520.23 657.10,497.50 C660.63,476.38 666.63,452.47 674.59,427.85 L 678.08 417.05 L 674.54 406.69 C659.41,362.41 662.39,313.01 683.32,260.92 C693.82,234.78 708.98,207.86 725.65,185.75 C727.95,182.70 729.59,180.18 729.40,180.01 C729.43,180.00 729.45,180.00 729.48,180.00 C729.87,180.00 728.55,182.36 726.54,185.25 C724.53,188.14 723.98,189.31 725.31,187.86 C730.45,182.22 730.48,184.98 725.54,214.62 C711.76,297.27 699.72,365.55 697.52,373.50 C690.20,399.92 682.70,438.87 679.38,467.74 C677.62,482.94 676.86,527.35 678.31,529.69 C678.81,530.51 681.62,529.00 687.27,524.90 C699.66,515.89 717.61,507.34 729.07,504.97 C734.26,503.90 740.53,503.03 743.00,503.03 C749.34,503.03 759.74,505.66 764.54,508.47 C768.26,510.65 776.16,518.28 777.11,520.61 C777.32,521.14 780.07,522.82 783.22,524.35 C786.37,525.87 791.58,529.06 794.80,531.43 C800.50,535.62 808.76,544.57 807.81,545.52 C807.55,545.78 804.67,545.50 801.42,544.89 C798.16,544.28 793.02,544.04 789.99,544.35 C773.54,546.04 765.78,554.04 762.57,572.61 C762.41,573.55 762.24,574.66 762.06,575.93 C762.65,571.21 762.99,567.47 762.84,567.01 C762.65,566.44 760.76,567.16 758.65,568.59 C753.03,572.41 740.47,578.40 733.00,580.83 C706.55,589.42 679.37,588.08 650.74,576.78 C646.52,575.11 641.68,572.74 636.57,569.88 L 644.22 562.28 L 652.00 554.55 L 652.00 554.42 L 656.49 550.01 C659.67,546.89 660.62,545.37 659.74,544.82 ZM 238.14 251.99 C234.95,241.85 232.71,233.96 233.10,233.58 C233.32,233.37 257.30,250.26 286.40,271.10 C315.49,291.95 339.68,309.00 340.16,309.00 C340.48,309.00 339.79,307.06 338.51,304.22 L 341.89 311.09 L 362.19 325.68 C406.72,357.68 409.56,360.19 405.27,363.70 C404.27,364.52 404.15,364.82 405.00,364.39 C405.83,363.98 405.04,365.03 403.25,366.72 C401.46,368.42 400.00,370.35 400.00,371.02 C400.00,371.69 397.55,374.88 394.56,378.11 C391.56,381.35 388.50,385.23 387.74,386.75 C386.98,388.26 385.80,389.38 385.11,389.23 C384.42,389.07 384.14,389.41 384.48,389.98 C384.83,390.54 384.62,391.00 384.01,391.00 C383.40,391.00 382.28,392.46 381.52,394.25 C380.77,396.04 378.16,399.44 375.73,401.81 C370.00,407.39 368.86,407.09 356.30,396.73 C328.68,373.94 294.96,335.36 270.04,298.00 C257.54,279.27 240.35,249.50 236.09,239.22 C233.44,232.81 233.88,236.99 237.04,248.17 C237.40,249.44 237.77,250.72 238.14,251.99 ZM 637.37 327.73 C637.10,329.09 636.86,330.44 636.63,331.79 L 635.22 340.08 L 643.03 363.66 C647.33,376.62 650.60,387.87 650.30,388.65 C649.69,390.25 644.86,393.00 642.68,393.00 C641.90,393.00 637.78,394.13 633.53,395.52 C629.29,396.91 624.17,398.30 622.16,398.62 C620.15,398.94 618.21,399.38 617.85,399.59 C617.50,399.81 616.26,399.20 615.09,398.24 C612.46,396.07 608.88,382.36 605.81,362.66 C603.92,350.49 603.60,344.29 603.56,318.50 C603.51,291.27 604.06,281.83 606.59,266.50 C607.29,262.28 605.96,264.60 603.50,271.63 C605.84,264.80 607.72,260.53 608.24,261.47 C608.76,262.39 614.93,280.07 621.96,300.77 C630.15,324.88 634.95,337.69 635.33,336.45 C635.60,335.59 636.44,331.97 637.37,327.73 ZM 506.52 747.27 C507.46,745.69 508.00,744.72 508.00,744.61 C508.00,744.32 512.95,736.37 519.00,726.96 C525.05,717.54 530.00,709.76 530.00,709.67 C530.00,709.58 520.89,709.44 509.75,709.38 C508.30,709.37 506.85,709.35 505.40,709.33 C526.62,709.48 551.19,708.41 565.68,706.38 C569.55,705.84 569.83,705.95 569.33,707.86 C569.03,709.00 567.93,710.21 566.88,710.54 C565.83,710.87 565.17,711.47 565.42,711.87 C565.67,712.27 564.95,713.17 563.83,713.87 C562.15,714.92 561.93,714.91 562.59,713.82 C563.22,712.77 563.04,712.78 561.70,713.86 C560.78,714.61 560.28,715.64 560.59,716.14 C560.90,716.64 560.78,716.95 560.32,716.83 C558.74,716.40 555.18,718.09 554.62,719.54 C554.32,720.34 553.22,721.00 552.20,721.00 C551.17,721.00 548.38,722.80 546.00,725.00 C543.62,727.20 541.04,729.00 540.28,729.00 C538.19,729.00 532.89,731.94 529.22,735.14 C527.41,736.71 525.13,738.00 524.15,738.00 C523.17,738.00 521.12,739.31 519.58,740.92 C516.34,744.30 512.22,745.67 510.61,743.91 C509.77,743.00 509.85,742.91 510.90,743.51 C511.89,744.07 512.08,743.93 511.54,743.06 C510.92,742.07 510.50,742.09 509.52,743.15 C508.92,743.80 507.90,745.21 506.52,747.27 ZM 479.66 791.56 C457.36,829.66 431.14,876.37 432.18,877.52 C431.12,876.35 456.78,830.34 479.66,791.56 ZM 598.41 288.11 C594.92,300.86 591.61,315.83 589.81,327.50 C588.77,334.20 588.06,344.55 587.71,355.65 C588.19,334.55 590.05,321.44 595.02,301.00 C596.06,296.72 597.22,292.33 598.41,288.11 ZM 275.22 342.70 C291.64,373.42 311.20,401.88 333.06,426.50 C310.93,401.57 291.65,373.64 275.22,342.70 ZM 463.54 706.46 C448.53,704.65 433.55,702.00 418.50,698.49 C431.04,701.41 447.93,704.38 463.54,706.46 ZM 761.48 580.24 C760.31,589.41 758.98,602.76 758.09,614.22 C759.05,601.39 760.26,589.22 761.48,580.24 ZM 334.21 295.26 C328.52,282.99 321.66,264.96 317.64,251.50 C321.57,264.65 328.21,282.11 334.21,295.26 ZM 757.17 627.65 C755.80,646.75 753.65,663.88 750.62,679.41 C753.63,663.94 755.78,646.84 757.17,627.65 ZM 718.97 188.92 C713.62,194.03 707.30,200.43 702.72,205.50 C697.66,211.10 692.85,216.81 688.29,222.60 C692.85,216.80 697.66,211.09 702.71,205.50 C707.41,200.30 713.67,193.97 718.97,188.92 Z" fill="rgb(181,75,186)" data-index="1"></path>
<path d="M 260.93 577.17 C256.13,573.94 252.88,571.61 252.56,571.09 C251.87,569.97 255.80,569.67 325.00,565.47 C357.17,563.52 385.29,561.61 387.47,561.21 L 391.44 560.50 L 383.86 556.20 L 384.17 556.37 L 392.85 561.08 L 466.68 556.54 C507.29,554.04 541.88,552.00 543.55,552.00 C546.30,552.00 547.37,553.12 554.76,563.75 C559.25,570.21 566.76,580.22 571.45,586.00 C576.14,591.78 579.98,596.75 579.99,597.06 C580.00,597.87 558.03,605.55 547.50,608.42 C535.52,611.69 521.23,614.54 506.00,616.70 C487.76,619.29 431.38,619.27 411.50,616.66 C361.77,610.15 314.26,597.35 269.76,578.48 C261.66,575.04 255.28,572.64 255.59,573.15 C255.85,573.57 257.85,575.05 260.93,577.17 ZM 236.36 425.12 C235.76,424.31 235.16,423.51 234.56,422.70 C229.72,416.21 225.93,410.76 226.13,410.58 C226.33,410.41 253.73,417.84 287.00,427.10 C320.27,436.35 347.91,443.94 348.41,443.96 C348.80,443.98 347.45,442.23 345.23,439.76 C351.78,445.70 357.65,446.78 381.50,453.37 C441.91,470.05 458.57,475.03 465.75,478.55 C471.79,481.51 472.86,482.40 472.12,483.81 C471.01,485.93 469.31,497.05 468.49,507.49 C468.15,511.89 467.00,518.63 465.94,522.47 C464.87,526.32 464.00,530.92 464.00,532.71 C464.00,535.38 463.53,536.08 461.39,536.62 C457.09,537.70 447.28,536.32 433.00,532.62 C367.84,515.78 300.94,477.94 239.51,423.19 L 227.51 412.50 L 232.38 419.50 C233.69,421.38 235.01,423.25 236.36,425.12 ZM 384.15 688.52 C383.71,688.95 391.96,691.54 401.92,694.27 C393.59,692.04 385.88,689.79 382.00,688.39 C379.75,687.57 382.38,686.39 418.67,671.91 C436.69,664.73 451.86,658.58 452.39,658.26 C452.85,657.97 448.31,656.76 441.92,655.44 C447.07,656.40 451.05,657.00 452.63,657.00 C454.69,657.00 481.15,646.94 521.00,631.00 C556.75,616.70 586.58,605.00 587.28,605.00 C587.99,605.00 591.25,607.74 594.53,611.08 C601.91,618.60 613.03,627.97 623.30,635.33 L 631.09 640.92 L 626.80 643.64 C617.85,649.32 595.98,660.03 582.50,665.33 C553.32,676.81 522.17,684.15 483.50,688.67 C465.97,690.71 407.34,691.09 393.00,689.26 C388.33,688.66 384.34,688.33 384.15,688.52 ZM 305.82 1001.02 C304.05,1001.05 303.00,1000.96 303.00,1000.72 C303.00,1000.40 329.89,974.40 362.75,942.95 C395.61,911.49 424.98,883.20 428.00,880.08 C430.39,877.60 432.61,874.66 435.44,870.03 C433.14,874.53 431.94,877.24 432.18,877.52 L 432.18 877.52 L 432.19 877.52 C432.41,877.74 444.02,875.92 457.98,873.46 C471.94,871.01 484.43,869.00 485.73,869.00 L 488.08 869.00 L 485.35 873.75 C454.65,927.05 398.68,968.80 322.50,995.23 ZM 523.00 754.52 C523.00,753.88 536.76,741.06 588.32,693.64 L 640.13 645.99 L 644.32 648.42 C651.89,652.82 667.06,659.01 677.87,662.11 C683.72,663.79 689.14,665.37 689.92,665.61 C691.84,666.23 687.02,671.16 674.95,680.91 C641.57,707.88 598.70,730.76 553.28,745.85 C540.57,750.08 523.00,755.11 523.00,754.52 ZM 453.60 1011.90 L 453.72 1011.82 C448.01,1015.73 442.96,1018.98 440.30,1020.35 C436.74,1022.19 435.98,1022.35 436.05,1021.25 C436.08,1020.84 442.08,1004.30 449.39,984.50 C456.71,964.70 462.58,948.36 462.46,948.20 C462.35,948.06 459.13,949.98 454.89,952.70 C458.61,950.23 461.40,948.20 462.25,947.24 C463.11,946.28 470.17,928.18 477.95,907.00 C485.73,885.83 492.41,868.20 492.80,867.83 C493.18,867.46 500.25,865.99 508.50,864.56 C516.75,863.14 524.58,861.73 525.90,861.43 L 528.30 860.89 L 527.64 867.92 C527.28,871.79 525.45,880.96 523.57,888.31 C513.13,929.03 489.06,969.21 452.60,1006.76 C445.50,1014.07 440.55,1019.74 441.60,1019.35 C442.64,1018.96 448.05,1015.61 453.60,1011.90 ZM 539.33 369.79 C538.90,360.99 538.67,351.83 538.91,349.63 C539.01,348.66 546.26,357.33 571.98,389.21 C581.60,401.12 589.62,410.71 589.81,410.52 C590.01,410.33 589.56,406.64 588.83,402.34 C588.41,399.84 588.09,395.96 587.88,390.66 C588.11,395.17 588.43,399.11 588.86,402.12 L 590.22 411.73 L 613.51 440.90 C639.39,473.33 640.37,475.09 635.32,480.04 C633.77,481.56 631.98,483.41 631.34,484.15 C630.70,484.89 628.56,487.03 626.59,488.89 C624.61,490.76 623.00,492.59 623.00,492.97 C623.00,493.35 621.24,495.08 619.08,496.82 C615.28,499.87 615.05,499.92 611.69,498.51 C607.47,496.75 595.87,483.22 586.15,468.71 C565.40,437.77 550.09,400.14 539.69,354.50 C539.06,351.75 538.99,360.45 539.33,369.79 ZM 636.57 569.88 C627.67,564.90 617.94,558.45 609.15,551.69 C583.62,531.65 558.83,503.10 535.19,466.48 L 551.47 476.62 C560.64,482.33 568.30,487.00 568.49,487.00 C568.65,487.00 567.28,483.65 565.29,479.11 L 569.03 487.50 L 610.51 513.50 L 652.00 539.50 L 652.00 546.96 L 652.00 554.42 L 652.00 554.55 L 644.22 562.28 ZM 530.48 935.64 C531.59,933.87 532.63,932.13 533.58,930.43 L 537.07 924.19 L 535.34 892.62 C534.39,875.26 533.91,860.75 534.28,860.39 C534.64,860.03 541.89,858.51 550.39,857.02 L 565.85 854.31 L 566.56 862.90 C569.06,892.88 559.66,940.32 544.36,974.91 C542.12,979.97 542.08,980.29 543.93,978.31 C544.60,977.58 545.46,976.50 546.45,975.14 C543.64,979.26 541.52,982.00 540.95,982.00 C540.43,982.00 539.98,980.09 539.97,977.75 C539.90,969.85 537.16,926.82 536.68,926.35 C536.43,926.09 534.79,928.36 533.06,931.40 C532.28,932.76 531.42,934.17 530.48,935.64 ZM 361.87 543.21 C335.14,526.36 310.13,506.37 286.62,483.04 C309.97,505.88 335.75,526.57 361.87,543.21 ZM 463.85 1004.66 C475.63,995.90 487.33,985.70 497.93,975.11 C489.92,983.31 481.65,990.94 474.10,996.92 C471.10,999.30 467.54,1001.97 463.85,1004.66 ZM 378.15 638.06 C353.09,629.18 328.36,617.94 304.28,604.46 C302.98,603.73 301.43,602.83 299.69,601.80 C301.39,602.80 302.94,603.70 304.28,604.45 C327.07,617.22 353.18,629.03 378.15,638.06 ZM 410.62 976.32 C392.74,983.88 373.44,990.00 353.52,994.40 C372.78,990.04 392.75,983.74 410.62,976.32 ZM 479.66 791.56 C479.65,791.57 479.64,791.59 479.64,791.61 C472.99,802.87 466.11,814.73 459.73,825.94 C468.09,811.09 477.14,795.53 485.94,780.89 C483.90,784.33 481.80,787.91 479.66,791.56 ZM 335.90 429.71 C311.99,403.32 291.40,373.62 274.04,340.49 C274.44,341.23 274.83,341.97 275.22,342.71 C291.65,373.65 310.93,401.57 333.06,426.50 C334.08,427.64 335.02,428.71 335.90,429.71 ZM 451.36 293.73 C465.07,330.37 480.42,365.76 496.43,397.79 C480.42,365.80 465.15,330.61 451.36,293.73 ZM 587.67 356.72 C588.11,334.78 589.92,321.96 595.02,301.00 C590.05,321.44 588.19,334.55 587.71,355.65 C587.69,356.00 587.68,356.36 587.67,356.72 ZM 467.31 706.95 C460.90,706.23 454.48,705.34 447.95,704.28 C453.15,705.11 458.34,705.84 463.54,706.46 C464.81,706.63 466.06,706.80 467.31,706.95 ZM 562.68 473.21 C556.59,459.12 551.57,444.06 547.75,428.49 C551.56,444.01 556.56,458.99 562.68,473.21 ZM 313.96 1000.53 C311.91,1000.71 310.02,1000.84 308.42,1000.93 ZM 561.63 950.21 C562.25,949.06 562.85,947.92 563.43,946.80 C564.53,944.70 565.58,942.59 566.61,940.49 C565.56,942.65 564.47,944.82 563.34,947.00 C562.81,948.02 562.24,949.10 561.63,950.21 ZM 450.23 955.72 C448.26,956.98 446.25,958.21 444.22,959.43 C446.27,958.19 448.31,956.94 450.23,955.72 ZM 505.10 709.32 L 505.40 709.33 C506.84,709.35 508.28,709.37 509.72,709.38 C508.17,709.37 506.63,709.35 505.10,709.32 Z" fill="rgb(48,171,160)" data-index="2" style="opacity: 1;"></path>

</g>
</svg>